<?xml version="1.0" encoding="UTF-8"?>
<svg version="1.1" xmlns="http://www.w3.org/2000/svg" width="731" height="132">
<path d="M0 0 C43.23 0 86.46 0 131 0 C131 43.56 131 87.12 131 132 C87.77 132 44.54 132 0 132 C0 88.44 0 44.88 0 0 Z " fill="#F8F7F8" transform="translate(600,0)"/>
<path d="M0 0 C39.6 0 79.2 0 120 0 C120 15.18 120 30.36 120 46 C80.4 46 40.8 46 0 46 C0 30.82 0 15.64 0 0 Z " fill="#4C2A73" transform="translate(605,81)"/>
<path d="M0 0 C1.56601635 1.19798982 3.10964386 2.42603951 4.625 3.6875 C5.28371094 4.2340625 5.94242187 4.780625 6.62109375 5.34375 C13.77089673 11.86314025 18.09767477 21.20545596 18.87890625 30.80859375 C19.23948386 41.42818582 16.76424654 50.43685623 11.625 59.6875 C12.2025 59.955625 12.78 60.22375 13.375 60.5 C15.6575868 61.70469859 17.5987942 63.09548115 19.625 64.6875 C18.03832422 68.59035767 15.49149519 71.02270982 12.5 73.9375 C11.58992188 74.82953125 10.67984375 75.7215625 9.7421875 76.640625 C9.04351562 77.31609375 8.34484375 77.9915625 7.625 78.6875 C4.73114983 77.38402007 2.87082062 75.95488118 0.625 73.75 C-1.13105809 72.28833765 -1.13105809 72.28833765 -3.375 71.6875 C-6.67341769 72.53178994 -9.46715536 73.79603503 -12.5078125 75.3203125 C-22.20533757 79.94447296 -36.51678367 78.69283084 -46.6015625 75.72265625 C-58.33561524 71.34304502 -67.79505329 64.07989119 -73.375 52.6875 C-78.14187387 41.86592747 -77.89073664 29.35911859 -73.69921875 18.40234375 C-68.32434898 7.38306797 -58.73167647 -0.90518515 -47.375 -5.3125 C-31.92417714 -9.99207972 -13.59970401 -9.02581253 0 0 Z M-49.375 17.6875 C-54.25265907 25.20548734 -56.66616691 31.89998957 -54.94921875 40.92578125 C-53.01946497 47.78055081 -49.30747801 53.16312636 -43.26953125 57.0390625 C-34.98816783 61.11378645 -27.07839676 61.42745824 -18.375 58.6875 C-21.86705938 55.09273299 -25.41533675 51.76723809 -29.375 48.6875 C-30.035 48.6875 -30.695 48.6875 -31.375 48.6875 C-29.25253203 44.82034962 -26.84753855 41.94344323 -23.6875 38.875 C-22.87925781 38.08480469 -22.07101562 37.29460938 -21.23828125 36.48046875 C-20.62339844 35.88878906 -20.00851562 35.29710938 -19.375 34.6875 C-18.87871094 35.06261719 -18.38242187 35.43773438 -17.87109375 35.82421875 C-13.41758476 39.17913919 -8.92495902 42.46461236 -4.375 45.6875 C-1.38331264 36.52545745 -2.07299678 29.38113151 -6.375 20.6875 C-10.76678308 14.20723312 -16.90063715 11.43220625 -24.375 9.6875 C-33.33246111 8.37102465 -43.04163929 10.99223296 -49.375 17.6875 Z " fill="#4B2972" transform="translate(344.375,7.3125)"/>
<path d="M0 0 C21.12 0 42.24 0 64 0 C64 23.1 64 46.2 64 70 C42.88 70 21.76 70 0 70 C0 46.9 0 23.8 0 0 Z " fill="#5C6972" transform="translate(605,5)"/>
<path d="M0 0 C11.7871875 -0.0928125 11.7871875 -0.0928125 23.8125 -0.1875 C27.49950073 -0.22846802 27.49950073 -0.22846802 31.26098633 -0.27026367 C33.24299633 -0.27903817 35.2250118 -0.28667982 37.20703125 -0.29296875 C38.70961487 -0.3159906 38.70961487 -0.3159906 40.24255371 -0.33947754 C50.87607123 -0.34335791 60.89212956 1.72245364 69 9 C75.26620927 16.78029333 75.64401239 24.22272097 75 34 C73.67836412 40.44167409 70.29267771 45.60014451 64.96875 49.48046875 C59.52678571 53 59.52678571 53 57 53 C57.38744385 53.52319824 57.7748877 54.04639648 58.17407227 54.58544922 C78 81.37565036 78 81.37565036 78 83 C58.1749831 86.01748778 58.1749831 86.01748778 51.55371094 81.23193359 C46.28285818 75.64482967 42.46767028 68.9091947 39.03222656 62.07470703 C38.06877403 60.20123085 38.06877403 60.20123085 36 58 C33.09376651 57.36310202 31.13814697 57.11565123 28.25 57.125 C25.8575 57.08375 23.465 57.0425 21 57 C21 65.58 21 74.16 21 83 C14.07 83 7.14 83 0 83 C0 55.61 0 28.22 0 0 Z M21 17 C21 24.59 21 32.18 21 40 C24.465 40.061875 27.93 40.12375 31.5 40.1875 C32.57572266 40.21481201 33.65144531 40.24212402 34.75976562 40.27026367 C41.42898019 40.3274811 47.88106064 40.01832841 52.9375 35.125 C55.029741 30.940518 55.30375349 28.92724751 53.8125 24.375 C51.79508382 20.61843193 50.29063448 18.72199349 46.20996094 17.43579102 C43.61790306 16.92465278 41.22032306 16.88766487 38.578125 16.90234375 C37.65418945 16.90484131 36.73025391 16.90733887 35.77832031 16.90991211 C34.61397461 16.91901611 33.44962891 16.92812012 32.25 16.9375 C28.5375 16.958125 24.825 16.97875 21 17 Z " fill="#5C6871" transform="translate(190,1)"/>
<path d="M0 0 C6.6 0 13.2 0 20 0 C20.01981934 1.44246094 20.03963867 2.88492188 20.06005859 4.37109375 C20.13639269 9.74610219 20.22506686 15.12084972 20.31738281 20.49560547 C20.35555792 22.817493 20.39043038 25.13943735 20.421875 27.46142578 C20.46777501 30.80782315 20.52572829 34.15383315 20.5859375 37.5 C20.59748871 38.5305249 20.60903992 39.5610498 20.62094116 40.62280273 C20.73832674 46.41485603 21.35404642 51.44186805 23 57 C23.268125 57.94875 23.53625 58.8975 23.8125 59.875 C24.84375 62.15625 24.84375 62.15625 27.125 63.1875 C28.07375 63.455625 29.0225 63.72375 30 64 C31.19625 64.4125 32.3925 64.825 33.625 65.25 C39.94162846 66.76023755 46.35558795 65.43238986 52 62.375 C57.58170938 55.74672012 57.46362484 48.09392141 57.51171875 39.84375 C57.52966995 38.70087524 57.54762115 37.55800049 57.56611633 36.38049316 C57.62001447 32.7536989 57.65405004 29.12703472 57.6875 25.5 C57.72069107 23.03123198 57.75518237 20.56248108 57.79101562 18.09375 C57.87572955 12.06259415 57.94263887 6.03147551 58 0 C64.6 0 71.2 0 78 0 C78.09936531 7.7738071 78.17170448 15.54723906 78.21972656 23.3215332 C78.23975996 25.96254929 78.26699451 28.60352149 78.30175781 31.24438477 C78.350639 35.05496091 78.37305267 38.86494721 78.390625 42.67578125 C78.41127014 43.84393875 78.43191528 45.01209625 78.45318604 46.21565247 C78.45613019 57.13310876 75.80664401 67.03617524 68 75 C57.87427888 83.85748965 44.98888842 85.03487845 32.05566406 84.21142578 C21.73434721 83.14987467 13.87457921 79.00998419 6.75 71.6875 C2.17355251 64.65938421 -0.13282995 57.7810275 -0.11352539 49.38354492 C-0.11344986 48.28278122 -0.11337433 47.18201752 -0.11329651 46.04789734 C-0.10813522 44.8706459 -0.10297394 43.69339447 -0.09765625 42.48046875 C-0.0962413 41.26676102 -0.09482635 40.05305328 -0.09336853 38.80256653 C-0.08777665 34.93085248 -0.07522558 31.05919653 -0.0625 27.1875 C-0.05748395 24.56054771 -0.05292123 21.93359451 -0.04882812 19.30664062 C-0.03780987 12.87107141 -0.02055075 6.43554555 0 0 Z " fill="#5B6871" transform="translate(368,1)"/>
<path d="M0 0 C0.74886475 0.00523682 1.49772949 0.01047363 2.26928711 0.01586914 C3.36188843 0.01961548 3.36188843 0.01961548 4.4765625 0.0234375 C5.40718506 0.0325415 6.33780762 0.04164551 7.29663086 0.05102539 C8.89094811 0.0625141 10.485268 0.0736403 12.07958984 0.08447266 C13.46443685 0.0941569 14.84928385 0.10384115 16.23413086 0.11352539 C21.59487344 10.73168158 26.80845196 21.40703647 31.85913086 32.17602539 C32.19541504 32.89210968 32.53169922 33.60819397 32.87817383 34.34597778 C37.73988789 44.70523658 42.559581 55.08399381 47.29974365 65.4994812 C47.9197412 66.86075023 48.54151081 68.22121364 49.1651001 69.58084106 C50.02721708 71.46287452 50.88179615 73.34813931 51.73413086 75.23461914 C52.21881836 76.30123779 52.70350586 77.36785645 53.20288086 78.46679688 C54.23413086 81.11352539 54.23413086 81.11352539 54.23413086 84.11352539 C47.30413086 84.11352539 40.37413086 84.11352539 33.23413086 84.11352539 C30.59413086 78.17352539 27.95413086 72.23352539 25.23413086 66.11352539 C6.91913086 65.61852539 6.91913086 65.61852539 -11.76586914 65.11352539 C-12.75586914 68.08352539 -13.74586914 71.05352539 -14.76586914 74.11352539 C-16.30924093 77.52633343 -18.03336314 80.78898686 -19.76586914 84.11352539 C-26.36586914 84.11352539 -32.96586914 84.11352539 -39.76586914 84.11352539 C-39.06414017 80.60488054 -38.6133232 78.43000132 -37.17797852 75.36938477 C-36.85193634 74.66704712 -36.52589417 73.96470947 -36.18997192 73.24108887 C-35.6551973 72.1106012 -35.6551973 72.1106012 -35.10961914 70.95727539 C-34.73497528 70.15366577 -34.36033142 69.35005615 -33.97433472 68.52209473 C-32.74309885 65.88357445 -31.50448421 63.24858855 -30.26586914 60.61352539 C-28.97692983 57.85663943 -27.68986387 55.09888406 -26.40292358 52.34106445 C-25.52009915 50.4494995 -24.6366489 48.55822651 -23.75259399 46.66723633 C-20.72761248 40.19273629 -17.73201231 33.70536183 -14.75805664 27.20727539 C-14.364953 26.34863892 -13.97184937 25.49000244 -13.5668335 24.60534668 C-12.05070005 21.29218208 -10.53544399 17.9786245 -9.0234375 14.66357422 C-7.98893516 12.39602869 -6.95184188 10.12968438 -5.91430664 7.86352539 C-5.60790253 7.18946655 -5.30149841 6.51540771 -4.98580933 5.82092285 C-2.38708465 0.15346251 -2.38708465 0.15346251 0 0 Z M6.23413086 24.11352539 C4.56155822 27.90261415 2.89707971 31.69520424 1.23413086 35.48852539 C0.75717773 36.56875977 0.28022461 37.64899414 -0.21118164 38.76196289 C-0.66235352 39.79321289 -1.11352539 40.82446289 -1.57836914 41.88696289 C-1.99731445 42.84006348 -2.41625977 43.79316406 -2.84790039 44.77514648 C-3.88767508 47.00512206 -3.88767508 47.00512206 -3.76586914 49.11352539 C3.49413086 49.11352539 10.75413086 49.11352539 18.23413086 49.11352539 C15.04204484 40.47611617 11.50973685 32.26803167 7.23413086 24.11352539 C6.90413086 24.11352539 6.57413086 24.11352539 6.23413086 24.11352539 Z " fill="#5B6871" transform="translate(132.765869140625,-0.113525390625)"/>
<path d="M0 0 C2.08203125 1.40234375 2.08203125 1.40234375 3.08203125 3.40234375 C-0.21796875 8.02234375 -3.51796875 12.64234375 -6.91796875 17.40234375 C-10.20572917 15.87239583 -13.49348958 14.34244792 -16.78125 12.8125 C-21.37788966 10.74601567 -24.82855703 10.19006549 -29.85546875 10.08984375 C-31.69431641 10.03376953 -31.69431641 10.03376953 -33.5703125 9.9765625 C-36.97765234 10.12405418 -36.97765234 10.12405418 -39.34375 12.265625 C-41.12233289 14.29933359 -41.12233289 14.29933359 -41.16796875 16.90234375 C-39.24900688 20.74026749 -35.72481791 21.82741717 -31.91796875 23.40234375 C-28.45227437 24.53903725 -24.94630118 25.48102883 -21.41796875 26.40234375 C-10.72216622 29.19522188 -2.3854195 31.96915591 4.08203125 41.40234375 C6.74935374 47.29268092 6.52224664 53.18981701 5.08203125 59.40234375 C2.16109573 66.52780929 -1.81326172 71.35746931 -8.91796875 74.40234375 C-22.69542579 79.85130586 -37.22809812 78.06060358 -50.91796875 73.40234375 C-56.14145332 71.06792766 -61.01465707 68.65935357 -64.91796875 64.40234375 C-63.34015952 60.69189128 -61.01093627 58.10327991 -58.29296875 55.15234375 C-57.47570312 54.2603125 -56.6584375 53.36828125 -55.81640625 52.44921875 C-55.18992187 51.77375 -54.5634375 51.09828125 -53.91796875 50.40234375 C-53.22832031 50.80066406 -52.53867187 51.19898438 -51.828125 51.609375 C-41.81836831 57.25273577 -33.62238535 60.69730048 -21.91796875 59.40234375 C-19.56113875 58.63867816 -17.99392929 57.78631744 -15.91796875 56.40234375 C-15.91796875 53.76234375 -15.91796875 51.12234375 -15.91796875 48.40234375 C-23.26007646 45.86071545 -30.68562178 43.74738753 -38.18945312 41.74023438 C-52.69537948 37.71847425 -52.69537948 37.71847425 -57.29296875 31.96484375 C-57.75445312 31.40925781 -58.2159375 30.85367188 -58.69140625 30.28125 C-62.7467507 24.06908222 -62.85466753 17.29872375 -61.48828125 10.15625 C-59.50433213 3.87374445 -55.32605655 -0.70108125 -49.6015625 -3.88671875 C-33.52749168 -11.2484843 -15.03186294 -8.45139075 0 0 Z " fill="#5B6871" transform="translate(546.91796875,7.59765625)"/>
<path d="M0 0 C6.94613436 -1.29258154 14.1790025 -2.25419739 21 0 C26.57838795 4.390158 29.815671 10.85578837 33.20068359 16.96972656 C36.73005902 22.91363535 40.91488351 28.4297095 45 34 C45.6612085 33.00556885 46.32241699 32.0111377 47.00366211 30.98657227 C49.44944013 27.30887767 51.89672851 23.63219028 54.34448242 19.95581055 C55.40511868 18.36233664 56.46534119 16.76858724 57.52514648 15.17456055 C59.04563296 12.8877887 60.56758854 10.60200094 62.08984375 8.31640625 C62.56590561 7.59973282 63.04196747 6.88305939 63.53245544 6.14466858 C66.88612829 1.11387171 66.88612829 1.11387171 68 0 C75.26 0 82.52 0 90 0 C90 27.72 90 55.44 90 84 C83.4 84 76.8 84 70 84 C69.67 66.84 69.34 49.68 69 32 C59.66479215 43.57418508 59.66479215 43.57418508 50.75 55.4375 C50.27949219 56.08525391 49.80898438 56.73300781 49.32421875 57.40039062 C48.21292197 58.93125864 47.10590398 60.46523168 46 62 C42.96017053 60.68472791 41.32830328 59.49276535 39.4765625 56.75390625 C39.02031494 56.09140869 38.56406738 55.42891113 38.09399414 54.74633789 C37.60922607 54.02567139 37.12445801 53.30500488 36.625 52.5625 C35.55525882 51.00912487 34.48356928 49.45709008 33.41015625 47.90625 C32.85215332 47.09800781 32.29415039 46.28976563 31.71923828 45.45703125 C28.90698934 41.43793535 25.98591109 37.50110316 23.0625 33.5625 C17.71386243 26.34068575 12.42281124 19.08013865 7.17407227 11.78540039 C6.66932373 11.08406982 6.1645752 10.38273926 5.64453125 9.66015625 C5.18127441 9.01449707 4.71801758 8.36883789 4.24072266 7.70361328 C3.2343193 6.32173949 2.1908398 4.96692126 1.13671875 3.62109375 C0 2 0 2 0 0 Z " fill="#4B2972" transform="translate(0,0)"/>
<path d="M0 0 C16.83 0 33.66 0 51 0 C51 13.53 51 27.06 51 41 C34.17 41 17.34 41 0 41 C0 27.47 0 13.94 0 0 Z " fill="#4E2C74" transform="translate(674,5)"/>
<path d="M0 0 C6.6 0 13.2 0 20 0 C20 27.39 20 54.78 20 83 C13.4 83 6.8 83 0 83 C0 55.61 0 28.22 0 0 Z " fill="#5B6872" transform="translate(456,1)"/>
<path d="M0 0 C3.2103292 3.2103292 5.71210285 5.74670717 8.26171875 9.3203125 C8.82310547 10.10277344 9.38449219 10.88523437 9.96289062 11.69140625 C10.53201172 12.49449219 11.10113281 13.29757813 11.6875 14.125 C12.26822266 14.93582031 12.84894531 15.74664062 13.44726562 16.58203125 C20.25277286 26.10187373 20.25277286 26.10187373 20.1953125 31.76171875 C20.18886719 32.87998047 20.18242187 33.99824219 20.17578125 35.15039062 C20.15902344 36.31763672 20.14226563 37.48488281 20.125 38.6875 C20.11597656 39.86634766 20.10695313 41.04519531 20.09765625 42.25976562 C20.07406517 45.17326342 20.03819386 48.08665704 20 51 C13.4 51 6.8 51 0 51 C0 34.17 0 17.34 0 0 Z " fill="#4C2972" transform="translate(0,33)"/>
<path d="M0 0 C6 0 6 0 8.11816406 1.51293945 C8.74432617 2.20605225 9.37048828 2.89916504 10.015625 3.61328125 C10.70914062 4.36673828 11.40265625 5.12019531 12.1171875 5.89648438 C12.82101562 6.69376953 13.52484375 7.49105469 14.25 8.3125 C14.96929687 9.09818359 15.68859375 9.88386719 16.4296875 10.69335938 C19.17162806 13.71000747 21.73562489 16.60343734 24 20 C24.33 13.4 24.66 6.8 25 0 C27.31 0 29.62 0 32 0 C32 11.22 32 22.44 32 34 C27 34 27 34 24.3515625 31.875 C23.45179688 30.92625 22.55203125 29.9775 21.625 29 C21.14820801 28.50322754 20.67141602 28.00645508 20.18017578 27.49462891 C16.32319413 23.4448633 12.6222981 19.26018707 9 15 C8.67 14.67 8.34 14.34 8 14 C7.67 20.6 7.34 27.2 7 34 C4.69 34 2.38 34 0 34 C0 22.78 0 11.56 0 0 Z " fill="#5B6871" transform="translate(422,98)"/>
<path d="M0 0 C6 0 6 0 8.74609375 2.34375 C9.66039641 3.38094908 10.55695046 4.43399634 11.4375 5.5 C11.90905518 6.04301758 12.38061035 6.58603516 12.86645508 7.14550781 C13.8133177 8.23862588 14.75315857 9.33786944 15.68554688 10.44335938 C17.4858872 12.57541174 19.33833208 14.66028991 21.1875 16.75 C22.115625 17.8225 23.04375 18.895 24 20 C24.33 13.4 24.66 6.8 25 0 C27.31 0 29.62 0 32 0 C32 11.22 32 22.44 32 34 C26 34 26 34 23 31.40234375 C21.98307226 30.26227241 20.98342301 29.10659532 20 27.9375 C19.505 27.37611328 19.01 26.81472656 18.5 26.23632812 C16.98122801 24.50595639 15.48993579 22.7552875 14 21 C12.02 18.69 10.04 16.38 8 14 C7.67 20.6 7.34 27.2 7 34 C4.69 34 2.38 34 0 34 C0 22.78 0 11.56 0 0 Z " fill="#5B6871" transform="translate(335,98)"/>
<path d="M0 0 C9.24 0 18.48 0 28 0 C28 1.98 28 3.96 28 6 C21.07 6 14.14 6 7 6 C7 8.64 7 11.28 7 14 C13.6 14 20.2 14 27 14 C27 15.98 27 17.96 27 20 C20.4 20 13.8 20 7 20 C7 22.31 7 24.62 7 27 C7.63091553 26.99476318 8.26183105 26.98952637 8.91186523 26.98413086 C11.75373347 26.96342174 14.59558588 26.95035934 17.4375 26.9375 C18.92733398 26.92493164 18.92733398 26.92493164 20.44726562 26.91210938 C21.39150391 26.90888672 22.33574219 26.90566406 23.30859375 26.90234375 C24.62041626 26.89448853 24.62041626 26.89448853 25.95874023 26.88647461 C28 27 28 27 29 28 C29 29.98 29 31.96 29 34 C19.43 34 9.86 34 0 34 C0 22.78 0 11.56 0 0 Z " fill="#5B6871" transform="translate(511,98)"/>
<path d="M0 0 C7.59 0 15.18 0 23 0 C23 8.25 23 16.5 23 25 C15.41 25 7.82 25 0 25 C0 16.75 0 8.5 0 0 Z " fill="#513077" transform="translate(702,51)"/>
<path d="M0 0 C1.2065625 0.0309375 1.2065625 0.0309375 2.4375 0.0625 C5.78683264 6.38747119 9.12059745 12.72045948 12.4375 19.0625 C12.9634375 20.06700195 12.9634375 20.06700195 13.5 21.09179688 C14.36153969 22.74487616 15.21253741 24.40343841 16.0625 26.0625 C16.52914062 26.97 16.99578125 27.8775 17.4765625 28.8125 C18.4375 31.0625 18.4375 31.0625 18.4375 34.0625 C15.125 34.375 15.125 34.375 11.4375 34.0625 C9.05585808 31.21989513 8.4375 29.77844733 8.4375 26.0625 C2.8275 26.0625 -2.7825 26.0625 -8.5625 26.0625 C-9.2225 28.0425 -9.8825 30.0225 -10.5625 32.0625 C-10.8925 32.7225 -11.2225 33.3825 -11.5625 34.0625 C-13.8725 34.0625 -16.1825 34.0625 -18.5625 34.0625 C-17.93308754 29.74739345 -16.39459879 26.36675876 -14.4375 22.484375 C-14.13054199 21.87233215 -13.82358398 21.26028931 -13.50732422 20.62969971 C-12.86121004 19.34416408 -12.21223107 18.06006472 -11.56054688 16.77734375 C-10.56011105 14.8077969 -9.56840199 12.83404615 -8.578125 10.859375 C-3.1473029 0.07676349 -3.1473029 0.07676349 0 0 Z M-0.5625 10.0625 C-2.2125 13.6925 -3.8625 17.3225 -5.5625 21.0625 C-1.9325 21.0625 1.6975 21.0625 5.4375 21.0625 C3.7875 17.4325 2.1375 13.8025 0.4375 10.0625 C0.1075 10.0625 -0.2225 10.0625 -0.5625 10.0625 Z " fill="#5C6871" transform="translate(393.5625,97.9375)"/>
<path d="M0 0 C0.87454834 0.00523682 1.74909668 0.01047363 2.65014648 0.01586914 C3.50036377 0.0183667 4.35058105 0.02086426 5.2265625 0.0234375 C6.85742798 0.03709351 6.85742798 0.03709351 8.52124023 0.05102539 C11.96561523 0.07165039 15.40999023 0.09227539 18.95874023 0.11352539 C18.95874023 8.03352539 18.95874023 15.95352539 18.95874023 24.11352539 C11.69874023 24.11352539 4.43874023 24.11352539 -3.04125977 24.11352539 C-3.06808769 20.30097916 -3.08801454 16.48861927 -3.10375977 12.67602539 C-3.11213867 11.58741211 -3.12051758 10.49879883 -3.12915039 9.37719727 C-3.13237305 8.34272461 -3.1355957 7.30825195 -3.13891602 6.24243164 C-3.14415283 5.28409424 -3.14938965 4.32575684 -3.15478516 3.33837891 C-3.00748108 0.45153576 -2.88436786 0.16041515 0 0 Z " fill="#E7C35D" transform="translate(678.041259765625,50.886474609375)"/>
<path d="M0 0 C2.18359375 1.10546875 2.18359375 1.10546875 5.43359375 3.10546875 C5.43359375 4.42546875 5.43359375 5.74546875 5.43359375 7.10546875 C3.80859375 8.29296875 3.80859375 8.29296875 1.43359375 9.10546875 C-0.57525475 8.12336504 -2.57427954 7.12106276 -4.56640625 6.10546875 C-9.75678124 5.54935714 -13.21378384 6.16997922 -17.56640625 9.10546875 C-19.53827582 12.19187329 -19.57044027 13.99049921 -19.44140625 17.66796875 C-18.4373516 21.61246915 -18.00098053 22.92744604 -14.56640625 25.10546875 C-8.27084544 26.67126003 -4.25007926 26.3532819 1.43359375 23.10546875 C3.80859375 23.41796875 3.80859375 23.41796875 5.43359375 24.10546875 C5.92859375 26.08546875 5.92859375 26.08546875 6.43359375 28.10546875 C-0.7201189 33.03358191 -5.96460019 33.89042444 -14.56640625 33.10546875 C-19.93776544 31.51395492 -23.516405 28.8634707 -26.56640625 24.10546875 C-28.18429172 19.25181234 -28.50535347 13.94913746 -26.8828125 9.03515625 C-21.75458169 -0.79572605 -10.03550693 -3.49791642 0 0 Z " fill="#5B6871" transform="translate(493.56640625,98.89453125)"/>
<path d="M0 0 C9.24 0 18.48 0 28 0 C28 1.98 28 3.96 28 6 C21.07 6 14.14 6 7 6 C7 8.97 7 11.94 7 15 C13.27 15 19.54 15 26 15 C26 16.98 26 18.96 26 21 C19.73 21 13.46 21 7 21 C7 25.29 7 29.58 7 34 C4.69 34 2.38 34 0 34 C0 22.78 0 11.56 0 0 Z " fill="#5B6871" transform="translate(272,98)"/>
<path d="M0 0 C2.31 0 4.62 0 7 0 C7 11.22 7 22.44 7 34 C4.69 34 2.38 34 0 34 C0 22.78 0 11.56 0 0 Z " fill="#5C6871" transform="translate(313,98)"/>
</svg>
